<svg id="Layer_1" data-name="Layer 1" xmlns="http://www.w3.org/2000/svg" viewBox="0 0 122.88 116.97"><defs><style>.cls-1{fill:#d3141b;}.cls-1,.cls-2,.cls-3,.cls-4,.cls-5,.cls-6{fill-rule:evenodd;}.cls-2{fill:#7db820;}.cls-3{fill:#537918;}.cls-4{fill:#543429;}.cls-5{fill:#ebbb19;}.cls-6{fill:#f09418;}</style></defs><title>nutrition</title><path class="cls-1" d="M67.83,27.18c-10.47-3.29-19.24-1-25.44,4.52a5.69,5.69,0,0,1,3.08,3.7,48.82,48.82,0,0,1,1.74,10.14,5.7,5.7,0,0,1,6.71,4.12,51.53,51.53,0,0,1,2,12.18,5.05,5.05,0,0,1,.55-.18,5.7,5.7,0,0,1,7,4.06c2.84,10.68,2.9,17.68.41,23-2.11,4.45-5.59,7.19-10.4,9.34.92.91,1.89,1.81,2.91,2.69,8,5.72,15,4.94,21.5,1.4,5.16,2.45,10.62,3.42,16.49,1.22,8.63-3.24,17.42-16,21.56-24,9-17.3,12.12-39.5-8.06-50.32-5.51-2.95-12.39-3.82-21.11-1.86a32.11,32.11,0,0,1-18.87,0Z"/><path class="cls-2" d="M61.36,24c4.41.54,9.14-.47,14.25-3.21l1-5C71,6,61.62.93,46.16,3.3l-6.08.63C44.53,13.18,50,22.61,61.36,24Z"/><path class="cls-3" d="M47.12,7.27c10.12,3.5,16.69,4.9,25.18,11.47-10-3.3-16.38-5.45-25.18-11.47Z"/><path class="cls-4" d="M75.1,22l.06,0a44.59,44.59,0,0,0-.39,6.56l5.38.11a36,36,0,0,1,1.71-12,28,28,0,0,1,7.74-12A2.69,2.69,0,1,0,86,.71,33.26,33.26,0,0,0,76.75,15c-.25.73-.47,1.49-.67,2.26l0-.06L75.1,22Z"/><path class="cls-5" d="M31.38,58.32C40.52,55.19,43.83,51.5,40,36.85c-7.18,5.67-15.53,9.73-8.58,21.47ZM24.86,43.26c8.51-2.93,11.6-6.36,8-20-6.69,5.27-14.45,9.05-8,20ZM42.07,96.52C31.23,102.23,25,102.09,14.82,85.79c11.47-1.71,22.46-5.87,27.25,10.73Zm-8.22-19.1c-9.64,5.08-15.22,5-24.24-9.54,10.2-1.52,20-5.24,24.24,9.54Zm-7.32-17C18,64.93,13,64.81,5,52c9.05-1.34,17.72-4.64,21.51,8.47ZM20,45.34c-8,4.2-12.57,4.1-20-7.89,8.42-1.26,16.51-4.32,20,7.89Zm27,49c11.59-4,15.79-8.64,10.86-27.2C48.79,74.36,38.22,79.51,47,94.37ZM38.75,75.3c10.3-3.53,14-7.69,9.66-24.19-8.1,6.38-17.5,11-9.66,24.19Z"/><path class="cls-6" d="M17.55,31.9C23,23.24,21,15.37,7.62,8.76c-4,10.07-2.35,20.82,9.93,23.14ZM44.2,101.06,49,99l6.21,14.35c1.36,3.15-3.43,5.21-4.79,2.07l-6.2-14.35Z"/></svg>