<?xml version="1.0" standalone="no"?>
<!DOCTYPE svg PUBLIC "-//W3C//DTD SVG 20010904//EN"
 "http://www.w3.org/TR/2001/REC-SVG-20010904/DTD/svg10.dtd">
<svg version="1.0" xmlns="http://www.w3.org/2000/svg"
 width="626.000000pt" height="501.000000pt" viewBox="0 0 626.000000 501.000000"
 preserveAspectRatio="xMidYMid meet">
<metadata>
Created by potrace 1.16, written by Peter Selinger 2001-2019
</metadata>
<g transform="translate(0.000000,501.000000) scale(0.100000,-0.100000)"
fill="#000000" stroke="none">
<path d="M1922 3502 c-26 -27 -28 -27 -44 -10 -25 25 -83 23 -109 -3 -19 -19
-20 -28 -14 -104 l7 -83 -28 -6 c-16 -3 -54 -5 -84 -4 -65 1 -421 -41 -435
-52 -5 -4 -29 -11 -52 -15 -46 -7 -44 -11 -58 100 -9 64 -27 85 -76 85 -31 0
-43 -6 -61 -30 -18 -26 -23 -28 -31 -15 -22 40 -105 36 -128 -6 -6 -12 -7 -49
-3 -96 6 -66 5 -78 -11 -89 -15 -11 -17 -22 -11 -68 8 -69 13 -83 35 -89 14
-3 20 -22 28 -82 13 -89 27 -109 79 -109 28 0 42 7 61 29 21 24 26 26 34 13
12 -22 57 -31 89 -18 40 17 50 47 40 122 -5 34 -10 68 -10 74 0 14 80 28 91
17 12 -12 422 39 440 53 8 7 36 14 64 15 l50 4 11 -79 c8 -62 16 -83 33 -98
33 -26 68 -22 101 10 27 27 28 28 50 10 23 -19 56 -23 85 -12 31 12 42 59 33
131 -8 60 -7 67 11 85 17 15 20 27 15 61 -10 75 -14 86 -34 92 -22 7 -26 18
-35 98 -8 68 -30 97 -76 97 -21 0 -40 -9 -57 -28z"/>
<path d="M2688 2827 c-42 -12 -80 -25 -84 -29 -7 -8 7 -85 28 -155 5 -18 15
-33 22 -33 7 0 19 15 27 33 10 23 25 35 54 45 72 24 136 -7 154 -74 11 -41 24
-40 56 5 24 35 26 47 21 85 -4 24 -15 51 -24 59 -28 26 -143 87 -160 86 -10 0
-52 -10 -94 -22z"/>
<path d="M3613 2820 c-35 -15 -34 -49 3 -94 14 -16 36 -50 49 -75 36 -73 101
-90 186 -51 49 22 119 26 151 9 18 -10 19 -17 13 -67 l-7 -56 23 16 c13 8 37
31 53 51 55 68 42 188 -23 221 -45 22 -164 46 -226 44 -33 0 -91 2 -130 6 -39
3 -80 2 -92 -4z"/>
<path d="M1150 2784 c-42 -18 -96 -68 -117 -109 -19 -36 -20 -127 -3 -182 24
-73 53 -133 64 -133 7 0 27 -34 46 -76 l33 -76 -12 -81 -13 -82 50 -45 c28
-25 84 -76 125 -113 68 -62 130 -96 141 -79 2 4 30 131 62 282 31 151 59 277
61 279 3 4 109 -16 191 -36 19 -5 23 -2 20 12 -2 15 -25 23 -108 41 -58 13
-112 23 -121 24 -13 0 -21 -25 -40 -115 -13 -63 -27 -115 -31 -115 -5 0 -8 4
-8 10 0 25 -74 161 -106 194 -19 20 -29 36 -22 36 35 1 39 15 23 81 -8 35 -15
80 -15 100 0 57 -46 137 -98 170 -52 33 -72 35 -122 13z m164 -103 c10 -11 24
-41 32 -67 16 -55 7 -104 -26 -139 -20 -21 -20 -25 -7 -47 11 -17 16 -69 20
-193 l6 -170 -78 155 c-70 137 -77 156 -61 162 32 12 30 24 -10 77 -64 85 -53
150 35 207 59 39 66 40 89 15z"/>
<path d="M4900 2786 c-14 -8 -39 -21 -57 -30 -47 -22 -80 -79 -97 -170 -9 -43
-22 -89 -31 -102 -21 -33 -19 -42 15 -49 67 -15 93 15 79 90 -10 56 2 137 27
170 14 19 14 19 30 -3 8 -12 24 -22 34 -22 60 0 80 -40 80 -160 l0 -92 50 -48
c45 -43 50 -52 50 -92 0 -33 9 -60 36 -104 59 -99 64 -100 64 -16 0 82 -15
194 -35 264 -9 31 -12 72 -8 115 7 85 -8 142 -49 189 -54 61 -139 89 -188 60z"/>
<path d="M3807 2409 c-45 -24 -82 -78 -96 -139 -15 -67 -14 -75 18 -87 43 -16
75 -83 76 -158 2 -65 19 -103 58 -124 14 -8 35 -43 57 -97 19 -47 39 -88 44
-91 5 -4 6 0 1 7 -5 9 3 22 23 39 19 15 66 87 111 169 l79 143 -39 74 -40 73
12 72 c9 60 9 75 -3 87 -18 17 -120 45 -128 34 -7 -11 -50 -21 -66 -14 -8 3
-14 11 -14 19 0 20 -48 17 -93 -7z"/>
<path d="M3423 2354 c-55 -24 -61 -36 -42 -78 17 -37 32 -38 104 -6 67 30 74
40 53 85 -14 32 -45 32 -115 -1z"/>
<path d="M2127 2276 c-6 -14 43 -29 166 -51 22 -5 37 -13 37 -22 0 -13 -34
-178 -160 -767 -27 -126 -51 -231 -54 -233 -6 -6 -728 147 -738 156 -4 3 9 79
29 169 34 157 34 164 17 183 -17 19 -292 191 -327 204 -14 6 -17 1 -17 -26 0
-30 -87 -379 -104 -420 -9 -22 47 -29 226 -29 l140 0 -8 -42 c-14 -83 -18 -79
76 -99 47 -9 230 -48 407 -85 178 -37 325 -65 328 -62 7 6 236 1080 232 1084
-3 3 -231 54 -241 54 -2 0 -6 -6 -9 -14z"/>
<path d="M4137 1810 c-55 -64 -108 -130 -118 -147 l-20 -31 58 -132 57 -133
-57 -53 c-31 -29 -79 -63 -107 -76 -44 -20 -50 -26 -46 -48 3 -14 8 -59 12
-100 5 -56 25 -124 81 -280 161 -440 144 -386 122 -414 -24 -31 -24 -32 5 -51
23 -15 27 -15 66 11 l41 27 -6 66 c-3 36 -19 176 -35 311 l-28 245 31 263 c30
247 33 263 51 258 18 -5 19 1 12 192 -4 108 -11 200 -14 203 -4 4 -51 -46
-105 -111z"/>
<path d="M2935 1472 c-33 -3 -105 -14 -263 -42 -67 -12 -114 -15 -132 -10 -28
8 -29 7 -35 -33 -4 -23 -3 -98 2 -167 l8 -125 87 -3 c72 -2 87 -6 91 -20 4
-16 5 -16 6 1 0 9 7 17 15 17 10 0 18 22 25 73 23 142 24 143 52 32 14 -57 30
-101 37 -101 6 -1 48 -2 92 -3 l80 -1 2 -57 2 -58 3 55 c2 30 8 59 13 64 9 9
6 176 -6 312 -6 67 -12 72 -79 66z"/>
<path d="M4975 1420 c-33 -4 -119 -8 -191 -9 -72 -1 -133 -3 -135 -6 -9 -8 53
-400 64 -407 23 -14 129 -21 137 -8 4 6 15 47 25 91 10 44 21 82 25 84 4 2 12
-46 20 -108 7 -62 15 -117 19 -123 4 -8 30 -4 86 15 l80 27 27 175 c14 96 29
198 33 227 l6 52 -68 -1 c-37 -1 -95 -5 -128 -9z"/>
<path d="M3620 1255 c0 -94 13 -226 45 -475 l44 -345 -27 -28 -26 -27 21 -22
c22 -21 22 -21 63 -3 23 10 43 22 46 26 2 4 20 170 39 369 19 199 37 372 40
386 16 79 19 73 -23 63 -20 -5 -58 -9 -83 -9 l-46 0 -38 88 c-21 48 -42 91
-47 97 -4 5 -8 -49 -8 -120z"/>
</g>
</svg>
